<?xml version="1.0" encoding="UTF-8" standalone="no"?>
<!-- Created with Inkscape (http://www.inkscape.org/) -->

<svg
   version="1.1"
   id="svg19856"
   width="500.81064"
   height="278.78711"
   viewBox="0 0 500.81063 278.78711"
   sodipodi:docname="ZBFH_Mini Brand Asset Guide_v3_r4.1_compressed.pdf"
   xmlns:inkscape="http://www.inkscape.org/namespaces/inkscape"
   xmlns:sodipodi="http://sodipodi.sourceforge.net/DTD/sodipodi-0.dtd"
   xmlns="http://www.w3.org/2000/svg"
   xmlns:svg="http://www.w3.org/2000/svg">
  <defs
     id="defs19860">
    <clipPath
       clipPathUnits="userSpaceOnUse"
       id="clipPath19982">
      <path
         d="M 0,0 H 841.89 V 595.276 H 0 Z"
         id="path19980" />
    </clipPath>
  </defs>
  <sodipodi:namedview
     id="namedview19858"
     pagecolor="#ffffff"
     bordercolor="#666666"
     borderopacity="1.0"
     inkscape:showpageshadow="2"
     inkscape:pageopacity="0.0"
     inkscape:pagecheckerboard="0"
     inkscape:deskcolor="#d1d1d1"
     showgrid="false" />
  <g
     id="g19862"
     inkscape:groupmode="layer"
     inkscape:label="ZBFH_Mini Brand Asset Guide_v3_r4.1_compressed"
     transform="matrix(1.3333333,0,0,-1.3333333,-436.01334,596.26709)">
    <g
       id="g19976">
      <g
         id="g19978"
         clip-path="url(#clipPath19982)">
        <g
           id="g19984"
           transform="translate(418.66,323.122)">
          <path
             d="m 0,0 c -1.28,2.611 -3.933,4.264 -6.838,4.264 h -41.924 l 38.898,36.768 c 4.472,3.808 5.703,9.95 3.539,15.089 -1.416,4.498 -5.564,7.782 -10.527,7.782 h -62.397 c -9.005,0 -14.941,-9.376 -11.093,-17.518 l 0.047,-0.101 c 2.027,-4.285 6.333,-7.021 11.079,-7.021 7.782,0 19.685,-0.004 31.765,-0.005 L -86.968,1.931 c -2.488,-2.116 -3.917,-4.985 -4.338,-7.982 -0.047,-0.208 -0.072,-0.416 -0.11,-0.627 -0.008,-0.064 -0.016,-0.127 -0.02,-0.193 -0.109,-0.675 -0.214,-1.347 -0.214,-2.052 0,-6.326 5.31,-11.454 11.867,-11.454 H -2.23 c 5.636,0 9.319,5.907 6.84,10.964 z"
             style="fill:#2a933f;fill-opacity:1;fill-rule:nonzero;stroke:none"
             id="path19986" />
        </g>
        <g
           id="g19988"
           transform="translate(467.292,392.993)">
          <path
             d="m 0,0 c -8.384,0 -16.241,-2.236 -23.059,-6.105 l -0.421,48.078 c -0.056,6.271 -5.183,11.306 -11.454,11.254 l -1.418,-0.012 c -3.352,0.483 -8.69,0.479 -13.215,0.976 -2.374,0.261 -3.679,-2.669 -1.908,-4.263 l 16.21,-12.379 -12.198,-2.254 0.611,-79.602 c 10e-4,-0.143 0.04,-0.272 0.045,-0.415 -0.033,-0.733 -0.111,-1.455 -0.111,-2.197 0,-25.867 21.049,-46.916 46.918,-46.916 25.869,0 46.914,21.049 46.914,46.916 C 46.914,-21.048 25.869,0 0,0 m 0,-69.885 c -12.663,0 -22.966,10.303 -22.966,22.966 0,0.175 0.022,0.344 0.025,0.517 0.146,0.743 0.22,1.514 0.213,2.305 l -10e-4,0.306 c 1.534,11.187 11.129,19.837 22.729,19.837 12.66,0 22.966,-10.301 22.966,-22.965 C 22.966,-59.582 12.66,-69.885 0,-69.885"
             style="fill:#2a933f;fill-opacity:1;fill-rule:nonzero;stroke:none"
             id="path19990" />
        </g>
        <g
           id="g19992"
           transform="translate(419.679,238.11)">
          <path
             d="m 0,0 c -26.664,0 -52.4,10.291 -72.461,28.972 -4.466,4.158 -4.714,11.148 -0.556,15.612 4.155,4.462 11.143,4.712 15.609,0.557 C -41.447,30.277 -21.06,22.09 0,22.09 c 21.153,0 41.608,8.251 57.6,23.229 4.453,4.168 11.44,3.941 15.61,-0.512 C 77.382,40.352 77.153,33.364 72.702,29.193 52.601,10.369 26.782,0 0,0"
             style="fill:#70c62d;fill-opacity:1;fill-rule:nonzero;stroke:none"
             id="path19994" />
        </g>
        <g
           id="g19996"
           transform="translate(537.604,382.786)">
          <path
             d="m 0,0 c 0,2.159 1.424,3.723 3.815,3.723 h 15.212 c 1.426,0 2.575,-1.06 2.575,-2.39 0,-1.333 -1.149,-2.486 -2.575,-2.486 H 4.962 v -9.558 h 13.376 c 1.331,0 2.435,-1.101 2.435,-2.437 0,-1.286 -1.151,-2.388 -2.435,-2.388 H 4.962 v -10.712 c 0,-1.419 -1.101,-2.523 -2.525,-2.523 -1.336,0 -2.437,1.195 -2.437,2.523 z"
             style="fill:#525357;fill-opacity:1;fill-rule:nonzero;stroke:none"
             id="path19998" />
        </g>
        <g
           id="g20000"
           transform="translate(566.654,356.495)">
          <path
             d="m 0,0 c 0,-1.423 -1.105,-2.481 -2.437,-2.481 -1.287,0 -2.437,1.15 -2.437,2.481 v 19.67 c 0,1.426 1.103,2.483 2.437,2.483 C -1.105,22.153 0,21.005 0,19.67 Z m -5.194,28.129 c 0,1.513 1.145,2.711 2.757,2.711 1.515,0 2.71,-1.198 2.71,-2.711 0,-1.515 -1.195,-2.806 -2.71,-2.806 -1.612,0 -2.757,1.291 -2.757,2.806"
             style="fill:#525357;fill-opacity:1;fill-rule:nonzero;stroke:none"
             id="path20002" />
        </g>
        <g
           id="g20004"
           transform="translate(591.75,356.497)">
          <path
             d="m 0,0 c 0,-1.427 -1.014,-2.482 -2.437,-2.482 -1.287,0 -2.437,1.144 -2.437,2.482 v 12.547 c 0,3.49 -2.25,5.239 -5.33,5.239 -2.258,0 -4.045,-0.414 -5.469,-1.287 V 0 c 0,-1.427 -1.108,-2.482 -2.437,-2.482 -1.287,0 -2.437,1.144 -2.437,2.482 v 18.061 c 0,0.829 0.324,1.473 0.968,1.884 1.653,1.288 5.147,2.527 9.515,2.527 C -3.446,22.472 0,19.025 0,12.776 Z"
             style="fill:#525357;fill-opacity:1;fill-rule:nonzero;stroke:none"
             id="path20006" />
        </g>
        <g
           id="g20008"
           transform="translate(609.674,359.439)">
          <path
             d="m 0,0 v 5.097 c -2.068,0.51 -3.952,0.783 -5.56,0.783 -2.897,0 -4.826,-1.289 -4.826,-3.448 0,-2.525 1.793,-3.858 5.056,-3.858 2.342,0 4.135,0.459 5.33,1.426 m 4.688,-1.335 c 0,-0.783 -0.274,-1.378 -0.873,-1.791 -1.838,-1.244 -5.33,-2.572 -9.56,-2.572 -6.067,0 -9.421,3.213 -9.421,7.946 0,2.159 0.782,3.957 2.39,5.427 1.609,1.469 3.905,2.206 6.941,2.206 1.699,0 3.675,-0.28 5.835,-0.782 v 1.513 c 0,3.127 -1.562,4.463 -5.1,4.463 -1.425,0 -3.124,-0.322 -5.01,-1.015 -1.98,-0.598 -3.357,0.325 -3.357,1.839 0,1.011 0.554,1.749 1.611,2.253 1.884,0.917 4.227,1.379 7.028,1.379 6.072,0 9.516,-2.852 9.516,-8.919 z"
             style="fill:#525357;fill-opacity:1;fill-rule:nonzero;stroke:none"
             id="path20010" />
        </g>
        <g
           id="g20012"
           transform="translate(638.863,356.497)">
          <path
             d="m 0,0 c 0,-1.427 -1.01,-2.482 -2.437,-2.482 -1.286,0 -2.437,1.144 -2.437,2.482 v 12.547 c 0,3.49 -2.248,5.239 -5.329,5.239 -2.253,0 -4.044,-0.414 -5.469,-1.287 V 0 c 0,-1.427 -1.105,-2.482 -2.436,-2.482 -1.288,0 -2.437,1.144 -2.437,2.482 v 18.061 c 0,0.829 0.322,1.473 0.966,1.884 1.654,1.288 5.148,2.527 9.515,2.527 C -3.445,22.472 0,19.025 0,12.776 Z"
             style="fill:#525357;fill-opacity:1;fill-rule:nonzero;stroke:none"
             id="path20014" />
        </g>
        <g
           id="g20016"
           transform="translate(658.306,361.735)">
          <path
             d="m 0,0 c 0.462,0.873 1.151,1.335 2.115,1.335 1.332,0 2.3,-1.057 2.3,-2.486 0,-1.422 -0.921,-2.942 -2.714,-4.501 -1.792,-1.563 -4.138,-2.343 -7.079,-2.343 -2.942,0 -5.377,0.917 -7.351,2.707 -1.977,1.794 -3.035,4.046 -3.266,6.759 -0.136,2.203 -0.136,4.365 0,6.524 0.185,2.716 1.242,4.968 3.217,6.667 1.979,1.697 4.458,2.572 7.4,2.572 2.941,0 5.287,-0.782 7.034,-2.346 1.791,-1.562 2.665,-3.076 2.665,-4.5 0,-1.426 -0.964,-2.484 -2.295,-2.484 -0.968,0 -1.659,0.462 -2.068,1.335 -1.016,2.202 -2.761,3.308 -5.243,3.308 -3.448,0 -5.514,-1.93 -5.836,-5.057 -0.138,-2.02 -0.138,-3.858 0,-5.466 0.322,-3.175 2.344,-5.334 5.836,-5.334 2.528,0 4.274,1.106 5.285,3.31"
             style="fill:#525357;fill-opacity:1;fill-rule:nonzero;stroke:none"
             id="path20018" />
        </g>
        <g
           id="g20020"
           transform="translate(670.535,356.495)">
          <path
             d="m 0,0 c 0,-1.423 -1.105,-2.481 -2.437,-2.481 -1.287,0 -2.437,1.15 -2.437,2.481 v 19.67 c 0,1.426 1.104,2.483 2.437,2.483 C -1.105,22.153 0,21.005 0,19.67 Z m -5.194,28.129 c 0,1.513 1.148,2.711 2.757,2.711 1.515,0 2.712,-1.198 2.712,-2.711 0,-1.515 -1.197,-2.806 -2.712,-2.806 -1.609,0 -2.757,1.291 -2.757,2.806"
             style="fill:#525357;fill-opacity:1;fill-rule:nonzero;stroke:none"
             id="path20022" />
        </g>
        <g
           id="g20024"
           transform="translate(689.01,359.439)">
          <path
             d="m 0,0 v 5.097 c -2.068,0.51 -3.952,0.783 -5.56,0.783 -2.897,0 -4.826,-1.289 -4.826,-3.448 0,-2.525 1.793,-3.858 5.055,-3.858 2.343,0 4.136,0.459 5.331,1.426 m 4.688,-1.335 c 0,-0.783 -0.276,-1.378 -0.873,-1.791 -1.84,-1.244 -5.33,-2.572 -9.562,-2.572 -6.065,0 -9.42,3.213 -9.42,7.946 0,2.159 0.783,3.957 2.391,5.427 1.609,1.469 3.905,2.206 6.94,2.206 1.7,0 3.675,-0.28 5.836,-0.782 v 1.513 c 0,3.127 -1.562,4.463 -5.1,4.463 -1.426,0 -3.126,-0.322 -5.01,-1.015 -1.978,-0.598 -3.357,0.325 -3.357,1.839 0,1.011 0.553,1.749 1.611,2.253 1.884,0.917 4.227,1.379 7.029,1.379 6.071,0 9.515,-2.852 9.515,-8.919 z"
             style="fill:#525357;fill-opacity:1;fill-rule:nonzero;stroke:none"
             id="path20026" />
        </g>
        <g
           id="g20028"
           transform="translate(702.618,356.497)">
          <path
             d="m 0,0 c 0,-1.427 -1.013,-2.482 -2.437,-2.482 -1.287,0 -2.437,1.144 -2.437,2.482 v 27.991 c 0,1.424 1.107,2.482 2.437,2.482 1.333,0 2.437,-1.154 2.437,-2.482 z"
             style="fill:#525357;fill-opacity:1;fill-rule:nonzero;stroke:none"
             id="path20030" />
        </g>
        <g
           id="g20032"
           transform="translate(537.604,336.505)">
          <path
             d="M 0,0 C 0,1.423 1.146,2.528 2.479,2.528 3.905,2.528 4.962,1.423 4.962,0 V -11.445 H 21.278 V 0 c 0,1.331 1.15,2.528 2.483,2.528 1.424,0 2.482,-1.105 2.482,-2.528 v -27.576 c 0,-1.427 -1.058,-2.528 -2.482,-2.528 -1.333,0 -2.483,1.192 -2.483,2.528 v 11.399 H 4.962 v -11.399 c 0,-1.427 -1.057,-2.528 -2.483,-2.528 -1.333,0 -2.479,1.192 -2.479,2.528 z"
             style="fill:#525357;fill-opacity:1;fill-rule:nonzero;stroke:none"
             id="path20034" />
        </g>
        <g
           id="g20036"
           transform="translate(572.86,321.477)">
          <path
             d="m 0,0 c -0.141,-2.161 -0.141,-3.954 0,-5.331 0.32,-3.265 2.434,-5.335 5.742,-5.335 3.311,0 5.472,2.07 5.792,5.335 0.093,1.145 0.093,2.938 0,5.331 C 11.35,3.079 9.097,5.192 5.742,5.192 2.434,5.192 0.228,3.123 0,0 m 13.098,7.307 c 1.975,-1.698 3.077,-3.952 3.261,-6.668 0.14,-2.159 0.14,-4.363 0,-6.573 -0.184,-2.706 -1.286,-4.96 -3.261,-6.751 -1.978,-1.792 -4.458,-2.665 -7.356,-2.665 -2.894,0 -5.331,0.873 -7.306,2.665 -1.977,1.791 -3.08,4.045 -3.31,6.751 -0.138,2.21 -0.138,4.414 0,6.573 0.23,2.716 1.286,4.97 3.266,6.668 1.975,1.699 4.456,2.572 7.35,2.572 2.941,0 5.378,-0.873 7.356,-2.572"
             style="fill:#525357;fill-opacity:1;fill-rule:nonzero;stroke:none"
             id="path20038" />
        </g>
        <g
           id="g20040"
           transform="translate(597.588,308.884)">
          <path
             d="m 0,0 c 0,-1.427 -1.013,-2.482 -2.437,-2.482 -1.287,0 -2.437,1.144 -2.437,2.482 v 27.991 c 0,1.424 1.107,2.482 2.437,2.482 1.333,0 2.437,-1.154 2.437,-2.482 z"
             style="fill:#525357;fill-opacity:1;fill-rule:nonzero;stroke:none"
             id="path20042" />
        </g>
        <g
           id="g20044"
           transform="translate(612.067,310.813)">
          <path
             d="m 0,0 c 1.839,0 4.227,0.873 5.284,1.653 v 12.78 c -1.516,0.967 -3.398,1.422 -5.651,1.422 -3.356,0 -5.149,-1.7 -5.331,-5.101 -0.138,-2.021 -0.138,-3.814 0,-5.376 C -5.425,1.79 -3.539,0 0,0 m -0.736,20.543 c 2.068,0 4.044,-0.461 6.02,-1.331 v 6.896 c 0,1.328 1.103,2.481 2.438,2.481 1.331,0 2.434,-1.062 2.434,-2.481 L 10.156,0 c 0,-0.828 -0.274,-1.423 -0.872,-1.842 C 8.41,-2.481 7.078,-3.128 5.378,-3.768 3.679,-4.365 1.886,-4.687 -0.093,-4.687 c -6.067,0 -9.973,3.72 -10.479,9.468 -0.183,2.159 -0.183,4.321 0,6.524 0.506,5.836 3.999,9.238 9.836,9.238"
             style="fill:#525357;fill-opacity:1;fill-rule:nonzero;stroke:none"
             id="path20046" />
        </g>
        <g
           id="g20048"
           transform="translate(631.556,308.882)">
          <path
             d="m 0,0 c 0,-1.423 -1.105,-2.481 -2.437,-2.481 -1.287,0 -2.437,1.15 -2.437,2.481 v 19.671 c 0,1.425 1.103,2.482 2.437,2.482 1.332,0 2.437,-1.148 2.437,-2.482 z m -5.194,28.129 c 0,1.513 1.146,2.713 2.757,2.713 1.515,0 2.712,-1.2 2.712,-2.713 0,-1.515 -1.197,-2.806 -2.712,-2.806 -1.611,0 -2.757,1.291 -2.757,2.806"
             style="fill:#525357;fill-opacity:1;fill-rule:nonzero;stroke:none"
             id="path20050" />
        </g>
        <g
           id="g20052"
           transform="translate(656.65,308.884)">
          <path
             d="m 0,0 c 0,-1.427 -1.011,-2.482 -2.437,-2.482 -1.286,0 -2.437,1.144 -2.437,2.482 v 12.547 c 0,3.49 -2.248,5.239 -5.329,5.239 -2.253,0 -4.044,-0.414 -5.469,-1.287 V 0 c 0,-1.427 -1.105,-2.482 -2.436,-2.482 -1.288,0 -2.437,1.144 -2.437,2.482 v 18.061 c 0,0.829 0.322,1.473 0.965,1.884 1.655,1.288 5.147,2.527 9.515,2.527 C -3.447,22.472 0,19.025 0,12.776 Z"
             style="fill:#525357;fill-opacity:1;fill-rule:nonzero;stroke:none"
             id="path20054" />
        </g>
        <g
           id="g20056"
           transform="translate(665.016,321.337)">
          <path
             d="m 0,0 c -0.137,-1.423 -0.137,-3.035 0,-4.732 0.235,-3.541 2.068,-5.287 5.472,-5.287 2.39,0 4.779,0.92 5.558,1.653 V 3.908 C 10.942,4.136 8.413,5.287 5.657,5.331 2.162,5.331 0.278,3.537 0,0 m 15.904,-13.189 c 0,-3.403 -1.011,-5.979 -3.079,-7.769 -2.067,-1.792 -4.689,-2.665 -7.906,-2.665 -2.71,0 -5.103,0.644 -7.171,1.932 -1.331,0.824 -2.02,1.743 -2.02,2.757 0,1.148 0.825,2.112 2.297,2.112 0.691,0 1.702,-0.369 3.033,-1.103 1.379,-0.78 2.666,-1.151 3.816,-1.151 3.446,0 6.205,2.07 6.205,5.565 v 0.455 c -2.023,-0.959 -4.137,-1.421 -6.296,-1.421 -5.7,0 -9.285,3.632 -9.65,9.148 -0.142,2.019 -0.142,3.998 0,5.883 0.502,5.7 4.132,9.468 10.339,9.468 3.858,0 7.585,-1.518 9.468,-2.807 0.643,-0.415 0.964,-1.054 0.964,-1.884 z"
             style="fill:#525357;fill-opacity:1;fill-rule:nonzero;stroke:none"
             id="path20058" />
        </g>
        <g
           id="g20060"
           transform="translate(695.77,320.65)">
          <path
             d="m 0,0 c 4.319,-1.06 6.478,-3.406 6.478,-6.943 0,-2.299 -0.873,-4.137 -2.62,-5.516 -1.699,-1.379 -3.904,-2.068 -6.617,-2.068 -3.539,0 -6.341,0.875 -8.458,2.624 -0.917,0.78 -1.149,2.203 -0.46,3.123 0.829,1.148 1.887,1.289 3.217,0.458 1.657,-1.194 3.632,-1.793 5.93,-1.793 2.714,0 4.229,1.194 4.229,3.035 0,1.335 -0.919,2.159 -3.17,2.713 -2.161,0.506 -3.264,0.734 -3.312,0.781 -4.457,1.104 -6.662,3.399 -6.662,6.896 0,2.251 0.826,4.043 2.525,5.374 1.702,1.335 3.91,2.024 6.529,2.024 2.895,0 5.194,-0.738 6.938,-2.16 C 5.514,7.767 5.469,6.158 4.779,5.42 3.997,4.505 2.941,4.412 1.605,5.101 c -1.33,0.782 -2.709,1.15 -4.227,1.15 -2.757,0 -4.136,-0.966 -4.136,-2.85 0,-1.288 0.829,-1.978 3.172,-2.578 z"
             style="fill:#525357;fill-opacity:1;fill-rule:nonzero;stroke:none"
             id="path20062" />
        </g>
      </g>
    </g>
  </g>
</svg>
